<svg xmlns="http://www.w3.org/2000/svg" viewBox="0 0 1106.50 316.06" role="img" aria-label="JAX-MD logo">
  <g stroke-linejoin="round" stroke-linecap="round" stroke="#dce0df" stroke-width="1.0">
    <polygon points="78.00,157.90 53.00,201.21 103.00,201.21 128.00,157.90" fill="#5e97f6" />
    <polygon points="28.00,244.51 53.00,201.21 103.00,201.21 78.00,244.51" fill="#5e97f6" />
    <polygon points="153.00,201.21 103.00,201.21 78.00,244.51 128.00,244.51" fill="#5e97f6" />
    <polygon points="203.00,201.21 153.00,201.21 128.00,244.51 178.00,244.51" fill="#5e97f6" />
    <polygon points="178.00,157.90 153.00,201.21 203.00,201.21 228.00,157.90" fill="#5e97f6" />
    <polygon points="203.00,114.60 178.00,157.90 228.00,157.90 253.00,114.60" fill="#5e97f6" />
    <polygon points="228.00,71.30 203.00,114.60 253.00,114.60 278.00,71.30" fill="#5e97f6" />
    <polygon points="253.00,28.00 228.00,71.30 278.00,71.30 303.00,28.00" fill="#5e97f6" />
    <polygon points="28.00,244.51 53.00,287.81 103.00,287.81 78.00,244.51" fill="#2a56c6" />
    <polygon points="153.00,287.81 103.00,287.81 78.00,244.51 128.00,244.51" fill="#2a56c6" />
    <polygon points="203.00,287.81 153.00,287.81 128.00,244.51 178.00,244.51" fill="#2a56c6" />
    <polygon points="228.00,244.51 203.00,201.21 178.00,244.51 203.00,287.81" fill="#00796b" />
    <polygon points="278.00,157.90 253.00,114.60 228.00,157.90" fill="#00796b" />
    <polygon points="278.00,71.30 253.00,114.60 278.00,157.90 303.00,114.60" fill="#00796b" />
    <polygon points="153.00,201.21 128.00,157.90 103.00,201.21" fill="#3367d6" />
    <polygon points="278.00,157.90 228.00,157.90 203.00,201.21 253.00,201.21" fill="#26a69a" />
    <polygon points="328.00,157.90 278.00,157.90 253.00,201.21 303.00,201.21" fill="#26a69a" />
    <polygon points="378.00,71.30 353.00,28.00 328.00,71.30 353.00,114.60" fill="#9c27b0" />
    <polygon points="403.00,114.60 378.00,71.30 353.00,114.60 378.00,157.90" fill="#9c27b0" />
    <polygon points="428.00,157.90 403.00,114.60 378.00,157.90 403.00,201.21" fill="#9c27b0" />
    <polygon points="453.00,201.21 428.00,157.90 403.00,201.21 428.00,244.51" fill="#9c27b0" />
    <polygon points="478.00,244.51 453.00,201.21 428.00,244.51 453.00,287.81" fill="#9c27b0" />
    <polygon points="453.00,28.00 428.00,71.30 453.00,114.60 478.00,71.30" fill="#9c27b0" />
    <polygon points="403.00,114.60 428.00,71.30 453.00,114.60 428.00,157.90" fill="#9c27b0" />
    <polygon points="378.00,157.90 353.00,201.21 378.00,244.51 403.00,201.21" fill="#9c27b0" />
    <polygon points="353.00,287.81 328.00,244.51 353.00,201.21 378.00,244.51" fill="#9c27b0" />
    <polygon points="303.00,287.81 278.00,244.51 328.00,244.51 353.00,287.81" fill="#6a1b9a" />
    <polygon points="253.00,201.21 203.00,201.21 228.00,244.51 278.00,244.51" fill="#00695c" />
    <polygon points="303.00,201.21 253.00,201.21 278.00,244.51" fill="#00695c" />
    <polygon points="303.00,114.60 328.00,157.90 378.00,157.90 353.00,114.60" fill="#00695c" />
    <polygon points="328.00,71.30 278.00,71.30 303.00,114.60 353.00,114.60" fill="#00695c" />
    <polygon points="453.00,287.81 428.00,244.51 378.00,244.51 403.00,287.81" fill="#00695c" />
    <polygon points="403.00,201.21 378.00,244.51 428.00,244.51" fill="#00695c" />
    <polygon points="353.00,28.00 303.00,28.00 278.00,71.30 328.00,71.30" fill="#ea80fc" />
    <polygon points="353.00,201.21 303.00,201.21 278.00,244.51 328.00,244.51" fill="#ea80fc" />
    <polygon points="378.00,157.90 328.00,157.90 303.00,201.21 353.00,201.21" fill="#ea80fc" />
    <polygon points="453.00,28.00 403.00,28.00 378.00,71.30 428.00,71.30" fill="#ea80fc" />
    <polygon points="403.00,114.60 378.00,71.30 428.00,71.30" fill="#ea80fc" />
    <polygon points="453.50,158.16 503.50,158.16 528.50,201.46 478.50,201.46" fill="#2a56c6" />
    <polygon points="478.50,114.86 453.50,158.16 503.50,158.16 528.50,114.86" fill="#5e97f6" />
    <polygon points="503.50,158.16 553.50,158.16 578.50,201.46 528.50,201.46" fill="#2a56c6" />
    <polygon points="578.50,114.86 603.50,158.16 578.50,201.46 553.50,158.16" fill="#3367d6" />
    <polygon points="528.50,114.86 503.50,158.16 553.50,158.16 578.50,114.86" fill="#5e97f6" />
    <polygon points="728.50,28.26 753.50,71.56 728.50,114.86 703.50,71.56" fill="#00796b" />
    <polygon points="678.50,28.26 653.50,71.56 703.50,71.56 728.50,28.26" fill="#26a69a" />
    <polygon points="653.50,71.56 628.50,114.86 678.50,114.86 703.50,71.56" fill="#26a69a" />
    <polygon points="678.50,114.86 703.50,158.16 678.50,201.46 653.50,158.16" fill="#00796b" />
    <polygon points="628.50,114.86 603.50,158.16 653.50,158.16 678.50,114.86" fill="#26a69a" />
    <polygon points="653.50,158.16 678.50,201.45 653.50,244.75 628.50,201.45" fill="#00796b" />
    <polygon points="603.50,158.16 578.50,201.45 628.50,201.45 653.50,158.16" fill="#26a69a" />
    <polygon points="553.50,244.75 603.50,244.75 628.50,288.06 578.50,288.06" fill="#00695c" />
    <polygon points="628.50,201.46 653.50,244.75 628.50,288.06 603.50,244.75" fill="#00796b" />
    <polygon points="578.50,201.46 553.50,244.75 603.50,244.75 628.50,201.46" fill="#26a69a" />
    <polygon points="678.50,114.86 728.50,114.86 753.50,158.16 703.50,158.16" fill="#00695c" />
    <polygon points="753.50,71.56 778.50,114.86 753.50,158.16 728.50,114.86" fill="#00796b" />
    <polygon points="703.50,71.56 678.50,114.86 728.50,114.86 753.50,71.56" fill="#26a69a" />
    <polygon points="703.50,158.16 753.50,158.16 778.50,201.46 728.50,201.46" fill="#00695c" />
    <polygon points="778.50,114.86 803.50,158.16 778.50,201.46 753.50,158.16" fill="#00796b" />
    <polygon points="728.50,114.86 703.50,158.16 753.50,158.16 778.50,114.86" fill="#26a69a" />
    <polygon points="778.50,114.86 828.50,114.86 853.50,158.16 803.50,158.16" fill="#00695c" />
    <polygon points="803.50,71.56 778.50,114.86 828.50,114.86 853.50,71.56" fill="#26a69a" />
    <polygon points="878.50,28.26 853.50,71.56 903.50,71.56 928.50,28.26" fill="#26a69a" />
    <polygon points="903.50,71.56 928.50,114.86 903.50,158.16 878.50,114.86" fill="#9c27b0" />
    <polygon points="853.50,71.56 828.50,114.86 878.50,114.86 903.50,71.56" fill="#26a69a" />
    <polygon points="878.50,114.86 903.50,158.16 878.50,201.46 853.50,158.16" fill="#9c27b0" />
    <polygon points="828.50,114.86 803.50,158.16 853.50,158.16 878.50,114.86" fill="#26a69a" />
    <polygon points="853.50,158.16 878.50,201.45 853.50,244.75 828.50,201.45" fill="#9c27b0" />
    <polygon points="803.50,158.16 778.50,201.45 828.50,201.45 853.50,158.16" fill="#26a69a" />
    <polygon points="753.50,244.75 803.50,244.75 828.50,288.06 778.50,288.06" fill="#9c27b0" />
    <polygon points="778.50,201.46 753.50,244.75 803.50,244.75 828.50,201.46" fill="#26a69a" />
    <polygon points="903.50,71.56 953.50,71.56 978.50,114.86 928.50,114.86" fill="#9c27b0" />
    <polygon points="928.50,28.26 903.50,71.56 953.50,71.56 978.50,28.26" fill="#ea80fc" />
    <polygon points="953.50,71.56 1003.50,71.56 1028.50,114.86 978.50,114.86" fill="#9c27b0" />
    <polygon points="1028.50,28.26 1053.50,71.56 1028.50,114.86 1003.50,71.56" fill="#9c27b0" />
    <polygon points="978.50,28.26 953.50,71.56 1003.50,71.56 1028.50,28.26" fill="#ea80fc" />
    <polygon points="1053.50,71.56 1078.50,114.86 1053.50,158.16 1028.50,114.86" fill="#9c27b0" />
    <polygon points="1003.50,71.56 978.50,114.86 1028.50,114.86 1053.50,71.56" fill="#ea80fc" />
    <polygon points="1028.50,114.86 1053.50,158.16 1028.50,201.46 1003.50,158.16" fill="#9c27b0" />
    <polygon points="978.50,114.86 953.50,158.16 1003.50,158.16 1028.50,114.86" fill="#ea80fc" />
    <polygon points="928.50,201.45 978.50,201.45 1003.50,244.75 953.50,244.75" fill="#9c27b0" />
    <polygon points="1003.50,158.16 1028.50,201.45 1003.50,244.75 978.50,201.45" fill="#9c27b0" />
    <polygon points="953.50,158.16 928.50,201.45 978.50,201.45 1003.50,158.16" fill="#ea80fc" />
    <polygon points="803.50,244.75 853.50,244.75 878.50,288.06 828.50,288.06" fill="#9c27b0" />
    <polygon points="828.50,201.46 803.50,244.75 853.50,244.75 878.50,201.46" fill="#ea80fc" />
    <polygon points="853.50,244.75 903.50,244.75 928.50,288.06 878.50,288.06" fill="#9c27b0" />
    <polygon points="928.50,201.46 953.50,244.75 928.50,288.06 903.50,244.75" fill="#9c27b0" />
    <polygon points="878.50,201.46 853.50,244.75 903.50,244.75 928.50,201.46" fill="#ea80fc" />
  </g>
</svg>
